<svg xmlns="http://www.w3.org/2000/svg" viewBox="39.9 39.21 193.39 193.39"><path d="M136.601 228.602a92.086 92.086 0 01-45.54-12.005c.245.004.485.022.73.022 7.646 0 14.849-1.739 20.278-4.894 5.76-3.35 8.922-7.924 8.91-12.885h.002v-2.048c4.644 1.765 10.05 2.719 15.694 2.719 7.645 0 14.848-1.739 20.278-4.894 5.762-3.349 8.923-7.925 8.908-12.886h.003v-12.27c4.576 1.69 9.863 2.608 15.383 2.608 7.645 0 14.846-1.738 20.278-4.893 5.76-3.35 8.922-7.924 8.908-12.886h.003V79.943c11.825 15.564 18.863 34.954 18.863 55.964 0 51.113-41.584 92.695-92.698 92.695zm-63.133-20.338c-4.523-2.61-7.025-5.97-7.045-9.457v-3.32c1.362 1.417 3.036 2.732 5.045 3.89 5.462 3.155 12.68 4.891 20.324 4.891 7.645 0 14.848-1.737 20.277-4.893 1.952-1.134 3.578-2.419 4.912-3.802v3.256c.019 3.48-2.438 6.831-6.923 9.437-4.827 2.807-11.316 4.353-18.266 4.353-2.861 0-5.636-.275-8.262-.78-3.758-.72-7.2-1.922-10.062-3.575zM62.423 160.87v30.562c-11.624-15.488-18.518-34.716-18.518-55.526 0-51.114 41.583-92.696 92.696-92.696a92.198 92.198 0 0132.928 6.062c-3.21.826-6.174 1.986-8.736 3.474-5.77 3.352-8.936 7.937-8.914 12.906v37.584c-4.575-1.692-9.862-2.609-15.382-2.609-7.644 0-14.844 1.739-20.276 4.893-5.77 3.352-8.936 7.938-8.914 12.907v27.359c-4.644-1.764-10.05-2.718-15.693-2.718-7.646 0-14.847 1.74-20.277 4.895-5.772 3.355-8.936 7.937-8.914 12.907zm137.092-72.775c-4.831 2.808-11.32 4.353-18.268 4.353-6.954-.001-13.46-1.548-18.324-4.354-4.522-2.612-7.024-5.971-7.044-9.458v-3.964c1.362 1.419 3.037 2.732 5.044 3.891 5.465 3.153 12.682 4.89 20.324 4.89 7.645 0 14.846-1.738 20.278-4.893 1.888-1.097 3.464-2.337 4.774-3.669.044-.045.093-.088.137-.132v3.899c.02 3.48-2.437 6.83-6.921 9.437zm0 12.605c-4.83 2.806-11.319 4.351-18.268 4.351-6.95 0-13.458-1.547-18.324-4.353-4.522-2.611-7.024-5.971-7.044-9.459v-3.573c1.362 1.418 3.037 2.732 5.044 3.89 5.461 3.154 12.678 4.891 20.324 4.892 7.644 0 14.845-1.738 20.278-4.894 1.951-1.134 3.578-2.419 4.911-3.802v3.51c.02 3.48-2.437 6.832-6.921 9.438zm-39.654 23.062c-.758.97-1.728 1.896-2.893 2.765-.345.256-.71.507-1.09.753-.307.202-.605.404-.935.596-.955.555-1.99 1.046-3.064 1.5-4.364 1.842-9.628 2.852-15.204 2.852-6.95 0-13.457-1.546-18.323-4.354-4.522-2.61-7.025-5.97-7.045-9.456-.02-3.483 2.44-6.834 6.925-9.439 4.83-2.807 11.316-4.352 18.265-4.352 5.639 0 10.968 1.033 15.382 2.916 1.029.439 2.024.908 2.942 1.439 3.983 2.298 6.392 5.178 6.927 8.213.07.413.113.828.116 1.244.01 1.843-.692 3.645-2.003 5.323zm.194 12.762c-.731.986-1.698 1.924-2.844 2.808-.418.322-.862.636-1.332.942-.308.201-.606.404-.936.597-.955.555-1.99 1.045-3.064 1.499-4.364 1.842-9.628 2.853-15.204 2.853-6.954-.001-13.46-1.548-18.323-4.355-4.522-2.61-7.025-5.97-7.045-9.457v-3.964c1.362 1.419 3.037 2.732 5.045 3.89 5.464 3.154 12.682 4.891 20.323 4.891 5.46 0 10.68-.901 15.204-2.556a32.332 32.332 0 004.481-2.024c.193-.108.401-.202.593-.313a23.595 23.595 0 003.346-2.356c.556-.47 1.086-.948 1.565-1.445v3.898c.01 1.758-.615 3.48-1.81 5.092zm-43.997 28.01c-.563 1.102-1.398 2.162-2.46 3.165a17.735 17.735 0 01-2.265 1.805c-.408.278-.824.552-1.275.815-.861.5-1.79.945-2.75 1.364-4.424 1.928-9.805 2.987-15.516 2.987-6.953 0-13.461-1.547-18.324-4.354-4.523-2.612-7.025-5.97-7.045-9.457-.02-3.482 2.44-6.832 6.924-9.437 4.828-2.808 11.316-4.354 18.267-4.354 5.771 0 11.22 1.082 15.693 3.048.914.404 1.803.83 2.63 1.307 2.542 1.468 4.42 3.177 5.602 5.008.922 1.425 1.432 2.923 1.442 4.45.006 1.243-.317 2.469-.923 3.653zm.923 18.434v3.511c.005 1.11-.267 2.203-.75 3.265-.513 1.13-1.29 2.226-2.322 3.257-1.042 1.04-2.318 2.025-3.85 2.915-4.828 2.806-11.317 4.351-18.267 4.351-6.953 0-13.461-1.547-18.324-4.353-4.523-2.613-7.025-5.971-7.045-9.459v-3.574c1.362 1.42 3.036 2.734 5.045 3.893 5.464 3.154 12.681 4.89 20.324 4.89 6.414 0 12.5-1.236 17.505-3.494.96-.434 1.897-.891 2.772-1.4.267-.155.514-.32.77-.482 1.608-1.013 2.99-2.126 4.142-3.32zm-.792-5.733c-.526 1.125-1.315 2.21-2.356 3.236a17.648 17.648 0 01-2.453 1.999c-.423.288-.855.57-1.322.842-.743.432-1.539.824-2.355 1.195-4.494 2.04-10.03 3.157-15.911 3.157-6.95 0-13.459-1.546-18.324-4.353-4.523-2.613-7.025-5.972-7.045-9.459v-3.965c1.362 1.419 3.036 2.733 5.045 3.892 5.462 3.153 12.68 4.89 20.324 4.89 5.583 0 10.922-.935 15.515-2.665 1.696-.637 3.297-1.376 4.762-2.228.185-.108.353-.222.533-.333 1.71-1.052 3.171-2.217 4.379-3.468v3.9c.006 1.143-.28 2.268-.792 3.36zm43.866-28.108c-.731.987-1.696 1.924-2.844 2.808-.418.324-.862.637-1.332.942-.308.202-.606.405-.936.598-.938.544-1.954 1.025-3.007 1.473-4.375 1.86-9.66 2.878-15.261 2.878-6.943 0-13.444-1.544-18.31-4.345-1.361-1.838-3.25-3.52-5.602-4.995-.931-1.432-1.448-2.938-1.456-4.472v-3.574c1.362 1.42 3.037 2.732 5.045 3.891 5.46 3.155 12.678 4.89 20.323 4.892 5.458 0 10.68-.901 15.204-2.558 1.642-.6 3.192-1.3 4.624-2.1.146-.08.305-.151.45-.237a23.282 23.282 0 004.911-3.801v3.51c.01 1.757-.615 3.48-1.81 5.09zm0 12.604c-.735.99-1.706 1.932-2.86 2.819a20.387 20.387 0 01-2.252 1.527c-4.83 2.806-11.318 4.353-18.268 4.353-5.772 0-11.222-1.082-15.694-3.05v-6.51h-.002l.002-.01a11.597 11.597 0 00-.156-1.806c4.679 1.802 10.145 2.772 15.85 2.772 5.872 0 11.473-1.033 16.222-2.94a31.63 31.63 0 003.606-1.716c.146-.08.305-.152.45-.238a23.271 23.271 0 004.911-3.8v3.508c.01 1.756-.615 3.48-1.81 5.091zm1.809 16.605v3.384c.02 3.48-2.437 6.83-6.921 9.438-4.83 2.806-11.318 4.352-18.268 4.352-5.771 0-11.22-1.08-15.694-3.05v-8.145c4.644 1.766 10.05 2.719 15.694 2.719 7.644 0 14.846-1.739 20.278-4.895 1.952-1.135 3.578-2.419 4.911-3.803zm-6.921.345c-4.831 2.806-11.319 4.353-18.268 4.353-5.771 0-11.22-1.082-15.694-3.05v-8.273c4.643 1.765 10.05 2.719 15.694 2.719 7.645 0 14.848-1.739 20.278-4.894a23.408 23.408 0 003.616-2.584c.456-.398.894-.801 1.295-1.218v3.51c.02 3.479-2.437 6.83-6.921 9.437zm44.572-65.378c-4.83 2.805-11.319 4.352-18.268 4.352-5.964 0-11.592-1.145-16.144-3.241-1.26-3.395-4.079-6.471-8.282-8.896-.265-.152-.553-.287-.825-.432a7.223 7.223 0 01-.117-1.244v-3.572c1.362 1.418 3.037 2.732 5.044 3.89 5.465 3.155 12.682 4.891 20.324 4.891 7.645 0 14.846-1.739 20.278-4.893 1.951-1.134 3.578-2.419 4.911-3.802v3.51c.02 3.478-2.437 6.829-6.921 9.437zm0 12.603c-4.831 2.806-11.32 4.353-18.268 4.353-5.639 0-10.968-1.033-15.383-2.917v-8.298c4.575 1.692 9.861 2.611 15.383 2.611 7.645 0 14.846-1.739 20.278-4.895 1.951-1.133 3.578-2.418 4.911-3.801v3.51c.02 3.48-2.437 6.831-6.921 9.437zm0 12.604c-4.83 2.806-11.319 4.352-18.268 4.352-5.64 0-10.97-1.034-15.383-2.916v-8.298c4.576 1.692 9.863 2.611 15.383 2.611 7.644 0 14.845-1.739 20.278-4.895 1.951-1.134 3.578-2.418 4.911-3.802v3.51c.02 3.479-2.437 6.831-6.921 9.438zm6.921 12.258v3.511c.02 3.48-2.437 6.83-6.921 9.437-4.83 2.807-11.319 4.352-18.268 4.352-5.638 0-10.967-1.032-15.383-2.916v-8.296c4.576 1.691 9.863 2.61 15.383 2.61 7.644 0 14.845-1.74 20.278-4.895 1.951-1.135 3.578-2.419 4.911-3.803zm-6.921.344c-4.831 2.808-11.32 4.353-18.268 4.353-5.639 0-10.968-1.033-15.383-2.917v-8.296c4.575 1.691 9.861 2.61 15.383 2.61 7.645 0 14.846-1.74 20.278-4.894 1.951-1.134 3.578-2.42 4.911-3.802v3.509c.02 3.479-2.437 6.83-6.921 9.437zm-18.446-99.26c1.186 0 2.351.062 3.506.15 5.612.43 10.785 1.876 14.818 4.204 4.523 2.612 7.024 5.97 7.043 9.458.005.971-.201 1.928-.572 2.864-.468 1.188-1.217 2.342-2.255 3.427-1.078 1.13-2.446 2.188-4.094 3.147-4.83 2.806-11.319 4.352-18.268 4.352-6.95 0-13.458-1.547-18.324-4.355-4.522-2.61-7.024-5.97-7.044-9.456-.019-3.483 2.44-6.833 6.925-9.439 3.68-2.138 8.327-3.54 13.404-4.088a45.39 45.39 0 014.861-.264zm29.367 21.711v-7.91h-.001l.001-.01c-.027-4.968-3.239-9.55-9.043-12.9-5.462-3.155-12.681-4.89-20.324-4.89-1.406 0-2.789.078-4.156.193a96.117 96.117 0 00-40.312-8.836c-53.319 0-96.696 43.377-96.696 96.696 0 23.552 8.473 45.154 22.518 61.946v.987c.034 4.962 3.245 9.538 9.045 12.888 3.011 1.74 6.567 3.03 10.424 3.854 15.57 10.725 34.414 17.02 54.71 17.02 53.318 0 96.697-43.377 96.697-96.695 0-23.74-8.615-45.495-22.863-62.343" fill="currentColor"/></svg>