<svg xmlns="http://www.w3.org/2000/svg" viewBox="39.81 36.3 201.03 193.39"><path d="M172.761 132.661a39.718 39.718 0 001.606-11.206v-.632c0-3.072-.368-6.116-1.055-9.068 2.883-4.31 8.688-9.346 20.08-9.346 19.55 0 23.321 14.056 23.47 14.646l.38 1.526 1.57.002c.339 0 5.113.07 9.708 3.33a17.793 17.793 0 014.441 4.562c1.142 1.681 2.139 3.712 2.872 6.186zm50.686 32.45h-80.9c.008-.07.021-.14.021-.214v-6.65c12.81-.82 23.723-9.457 28.783-21.587h57.773a91.96 91.96 0 01-5.677 28.45zm-6.302 13.525c-4.664-2.316-10.494-1.437-14.349 2.416l-.633.633a13.548 13.548 0 01-9.812 3.99c-3.587-.062-6.895-1.526-9.319-4.123-2.272-2.436-5.37-3.81-8.725-3.867-3.366-.078-6.658 1.25-9.099 3.692l-.633.635c-2.638 2.636-6.144 4.072-9.814 3.99-3.584-.063-6.893-1.526-9.316-4.125-2.273-2.436-5.372-3.809-8.726-3.866-3.46-.064-6.66 1.252-9.1 3.694l-.633.634a13.52 13.52 0 01-9.811 3.989c-3.585-.063-6.895-1.526-9.318-4.123-2.274-2.437-5.373-3.81-8.727-3.868-3.455-.09-6.657 1.252-9.098 3.694l-.634.633c-2.638 2.637-6.071 4.077-9.813 3.99-3.583-.062-6.892-1.526-9.316-4.123-3.554-3.81-9.09-4.878-13.81-2.88a92.674 92.674 0 01-6.745-14.168l20.389-14.83a25.133 25.133 0 0129.332-.184l26.318 18.642h96.095a92.45 92.45 0 01-4.703 9.525zm-19.358 23.835c-5.083 2.126-11.007.938-14.755-3.079-2.272-2.436-5.37-3.81-8.725-3.867a12.547 12.547 0 00-9.099 3.692l-.633.635a13.575 13.575 0 01-9.812 3.99c-3.584-.062-6.895-1.526-9.318-4.125-2.273-2.435-5.373-3.809-8.728-3.866-3.453-.078-6.657 1.251-9.097 3.693l-.634.634c-2.637 2.636-6.15 4.069-9.811 3.99-3.585-.063-6.895-1.525-9.318-4.124-2.274-2.436-5.373-3.81-8.727-3.867-3.455-.068-6.657 1.252-9.098 3.694l-.634.633c-2.638 2.637-6.096 4.104-9.812 3.99a13.274 13.274 0 01-2.307-.251 93.448 93.448 0 01-18.675-21.103c3.061-1.041 6.492-.29 8.741 2.12 3.169 3.396 7.492 5.312 12.17 5.393l.312.003c4.67 0 9.063-1.827 12.4-5.164l.633-.633c1.667-1.665 3.804-2.572 6.201-2.523a8.155 8.155 0 015.871 2.597c3.17 3.398 7.493 5.314 12.174 5.394 4.838.125 9.299-1.75 12.708-5.16l.634-.634c1.632-1.632 3.775-2.525 6.05-2.525l.151.001c2.26.04 4.346.963 5.872 2.598 3.17 3.397 7.492 5.313 12.172 5.394 4.794.063 9.298-1.748 12.71-5.161l.633-.633c1.668-1.666 3.908-2.591 6.203-2.523a8.147 8.147 0 015.869 2.598c3.17 3.396 7.493 5.313 12.173 5.393.103.002.206.002.31.002 4.669 0 9.062-1.826 12.4-5.164l.633-.633c2.547-2.545 6.347-3.172 9.455-1.776a93.455 93.455 0 01-17.292 20.367zm-61.278 23.226c-20.138 0-38.782-6.476-54.001-17.426a17.42 17.42 0 009.719-4.939l.633-.633c1.632-1.631 3.774-2.524 6.05-2.524h.151a8.155 8.155 0 015.871 2.598c3.17 3.398 7.493 5.314 12.174 5.393 4.838.106 9.299-1.749 12.708-5.16l.634-.633c1.667-1.666 3.853-2.584 6.2-2.522a8.146 8.146 0 015.873 2.596c3.171 3.398 7.494 5.314 12.174 5.394 4.822.07 9.297-1.749 12.708-5.161l.633-.635c1.668-1.665 3.87-2.585 6.203-2.521a8.15 8.15 0 015.869 2.597c3.059 3.278 7.224 5.106 11.53 5.35-15.42 11.444-34.495 18.226-55.129 18.226zM108.641 108.73a19.175 19.175 0 01-3.939-.51 19.827 19.827 0 01-3.65-1.264c-.393-.179-.768-.387-1.146-.592-2.71-1.458-5.04-3.55-6.87-6.115-.231-.323-.484-.624-.697-.963l-.006-.01a20.336 20.336 0 01-3.102-9.84 19.997 19.997 0 01.4-5.16c.272-1.271.671-2.487 1.17-3.647.177-.41.362-.812.565-1.205a18.947 18.947 0 015.73-6.667c.338-.244.671-.495 1.028-.721a.443.443 0 00.035-.019 18.823 18.823 0 018.324-2.799 20.67 20.67 0 011.25-.073c.165-.003.331-.016.495-.016 2.845 0 5.677.632 8.288 1.835.377.173.751.36 1.118.557 2.756 1.484 5.187 3.661 7.08 6.415l-13.149 23.953a38.57 38.57 0 00-2.924 6.841zm22.656-19.592l7.271 7.271v11.267l-10.245-10.246a2 2 0 00-2.828 2.83l13.073 13.072v11.268L123.971 110a2 2 0 10-2.828 2.828l17.425 17.426v11.266l-15.917-15.916a2 2 0 10-2.828 2.828l18.745 18.744v7.056c-15.502-1.138-27.8-15.401-27.8-32.778v-.632c0-5.995 1.487-11.879 4.305-17.01l23.495-42.806v29.745l-4.443-4.444a2 2 0 00-2.828 2.83zm30.014 36.51a2.001 2.001 0 00-2.828 0l-15.915 15.916v-11.267l17.465-17.467a1.999 1.999 0 10-2.828-2.828l-14.637 14.639v-11.267l13.115-13.114a2 2 0 00-2.828-2.83l-10.287 10.287V96.449l7.31-7.312a2 2 0 00-2.827-2.829l-4.483 4.485V61.007l23.493 42.806h.002c2.816 5.13 4.304 11.011 4.304 17.01v.632c0 17.377-12.298 31.64-27.799 32.778v-7.014l18.743-18.744a1.999 1.999 0 000-2.828zM43.813 133c0-51.113 41.583-92.696 92.696-92.696 45.624 0 83.627 33.139 91.27 76.604a23.89 23.89 0 00-7.487-2.213c-.632-1.68-2.005-4.619-4.659-7.543-3.618-3.99-10.416-8.743-22.241-8.743-11.016 0-17.588 4.274-21.46 8.723a38.352 38.352 0 00-2.364-5.244h.001l-29.001-52.839-13.75 25.051c-1.783-2.199-3.87-4.039-6.184-5.448l3.79-7.387a2 2 0 00-3.56-1.825l-3.81 7.428a23.76 23.76 0 00-8.157-1.712l-.418-8.427a2 2 0 00-3.995.199l.42 8.45a22.845 22.845 0 00-7.766 2.633l-4.512-7.167a2 2 0 10-3.385 2.13l4.566 7.254a22.884 22.884 0 00-5.362 6.22l-7.33-3.972a1.997 1.997 0 00-2.71.804 1.998 1.998 0 00.804 2.71l7.512 4.071a23.774 23.774 0 00-1.002 3.376 24.12 24.12 0 00-.525 4.844l-8.19.22a1.999 1.999 0 00.053 3.999l.053-.001 8.395-.226c.448 2.787 1.406 5.488 2.816 8.016l-6.938 4.367a2 2 0 002.13 3.385l7.017-4.416a24.269 24.269 0 006.363 5.627l-3.781 7.37a2.002 2.002 0 00.867 2.694 1.999 1.999 0 002.693-.868l3.805-7.416c1.066.425 2.154.803 3.286 1.075 1.281.31 2.568.502 3.85.597a40.057 40.057 0 00-.846 8.119v.632c0 19.593 14.091 35.657 31.801 36.792v6.65c0 .074.015.144.021.214h-11.563l-25.279-17.904a29.127 29.127 0 00-33.995.212L48.335 161.54A92.1 92.1 0 0143.813 133zm196.539 1.259c-1.44-7.02-4.6-11.535-8.068-14.439-6.45-47.103-46.928-83.516-95.775-83.516-53.319 0-96.696 43.377-96.696 96.696 0 26.92 11.067 51.296 28.879 68.844 2.16 2.13 4.42 4.16 6.773 6.081 16.659 13.599 37.913 21.772 61.044 21.772 24.276 0 46.472-9.012 63.471-23.84a97.462 97.462 0 005.015-4.662c16.62-16.691 27.177-39.403 28.118-64.535h7.731l-.492-2.401" fill="currentColor"/></svg>