<svg xmlns="http://www.w3.org/2000/svg" width="283.893" height="106.667"><g fill="#1a67bb"><path d="M133.327 40.2c-3.052.183-6.059 1.929-7.93 3.258v-1.883c0-.635-.513-1.145-1.155-1.145h-4.614c-.641 0-1.157.51-1.157 1.145v27.97c0 .637.516 1.146 1.157 1.146h4.614c.642 0 1.155-.509 1.155-1.146V50.214c1.038-.87 4.263-3.29 8.104-3.625a1.153 1.153 0 001.048-1.146v-4.097a1.1 1.1 0 00-.364-.831 1.104 1.104 0 00-.858-.314zM97.3 57.587c-2.715.256-4 1.497-4 3.884 0 1.473.401 3.952 3.088 3.952 3.199 0 7.536-1.207 7.586-1.219v-6.972zm13.588-7.634v20.063a1.16 1.16 0 01-1.31 1.144c-2.348-.334-3.463-1.068-4.576-1.92-.05.02-5.24 2.116-9.884 2.116-5.587 0-8.792-3.53-8.792-9.694 0-6.021 2.936-8.687 10.13-9.225l7.518-.602V50.01c0-2.311-1.375-3.636-3.764-3.636-3.292 0-7.992.384-10.493.608a1.147 1.147 0 01-.872-.275 1.193 1.193 0 01-.391-.815l-.145-3.839a1.143 1.143 0 01.96-1.18c2.24-.355 7.824-1.168 11.308-1.168 7.037 0 10.31 3.26 10.31 10.248zM14.873 35.517h-2.53c-2.824 0-4.434.216-5.249.376V47.85c1.35.095 3.95.231 7.443.193 4.507-.046 7.31-2.438 7.31-6.237 0-3.039-1.833-6.288-6.974-6.288zm14.548 33.566c.15.352.116.761-.087 1.092a1.17 1.17 0 01-.97.516h-5.362a1.13 1.13 0 01-1.047-.681l-6.872-15.46a127.04 127.04 0 01-7.989-.32v15.314a1.14 1.14 0 01-1.142 1.146H1.16A1.15 1.15 0 010 69.544V30.77c0-.587.442-1.077 1.026-1.144 6.156-.695 11.079-.766 12.906-.766.63 0 .96.005.96.005 11.813 0 14.287 6.975 14.287 12.815 0 4.88-2.328 8.406-7.119 10.782zm134.652-28.209a1.127 1.127 0 00-.9-.444h-4.49c-.52 0-.97.349-1.106.854l-6.012 22.676h-.466l-6.019-22.676a1.142 1.142 0 00-1.112-.854h-4.477c-.36 0-.696.164-.914.444-.213.284-.289.65-.202.99l6.622 25.434c.331 1.262 1.495 3.393 3.802 3.393h1.286c-.113.429-.226.884-.353 1.273l-.06.192c-.361 1.173-.9 2.947-4.176 2.947l-5.725-.353c-.33-.023-.64.093-.872.325a1.14 1.14 0 00-.344.872l.14 3c.018.508.373.937.872 1.062 1.688.418 4.912.904 7.566 1.004.127.009.239.009.363.009 4.32 0 7.255-2.796 8.733-8.301 1.715-6.448 3.86-14.742 5.431-20.8l1.756-6.75.863-3.302a1.126 1.126 0 00-.206-.995zm-110.25 14.54c0-6.772-1.84-9.404-6.545-9.404-4.881 0-6.616 2.458-6.616 9.403 0 6.295 1.054 9.702 6.616 9.702 5.473 0 6.545-3.56 6.545-9.702zm7.031 0c0 11.022-4.19 15.94-13.576 15.94-9.438 0-13.647-4.918-13.647-15.94 0-10.866 4.21-15.71 13.647-15.71 9.264 0 13.576 4.986 13.576 15.71zm21.82 10.366l.2 3.802a1.155 1.155 0 01-.93 1.186c-1.607.294-3.816.658-5.204.658-6.973 0-9.097-2.668-9.097-11.401V46.678H64.97c-.636 0-1.15-.52-1.15-1.156v-3.947c0-.635.514-1.145 1.15-1.145h2.672v-4.695c0-.53.364-.992.873-1.115l4.62-1.127c.341-.078.705-.005.98.21.278.221.441.552.441.906v5.82H81.6c.63 0 1.142.511 1.142 1.146v3.947c0 .635-.513 1.156-1.142 1.156h-7.044v12.37c0 4.28.15 5.763 3.153 5.763 1.106 0 2.843-.072 3.773-.122.616-.014 1.173.449 1.192 1.091m147.922 27.204c-22.025 0-39.955-17.929-39.955-39.967 0-22.035 17.93-39.96 39.955-39.96 22.037 0 39.959 17.925 39.959 39.96 0 22.038-17.922 39.967-39.959 39.967zm53.207-41.305l-.011-.15-.115-.066c-2.261-1.372-5.228-2.144-8.128-2.207a339.48 339.48 0 01-.466-3.488c2.773-.786 5.43-2.292 7.293-4.22l.097-.09-.028-.148c-.137-1.033-.53-2.473-.886-3.346l-.06-.131-.14-.036c-2.551-.728-5.606-.709-8.411 0-.133-.36-1.17-2.864-1.319-3.215 2.47-1.507 4.638-3.641 5.939-5.955l.07-.111-.051-.145c-.374-.89-1.127-2.18-1.727-2.995l-.081-.112h-.154c-2.625-.057-5.557.747-8.141 2.139-.227-.317-1.91-2.507-2.139-2.812 2.015-2.076 3.552-4.708 4.212-7.283l.039-.144-.099-.11c-.6-.79-1.645-1.851-2.43-2.471l-.108-.081-.148.021c-2.582.654-5.2 2.199-7.283 4.201a349.126 349.126 0 01-2.817-2.21c1.39-2.454 2.205-5.294 2.205-7.913 0-.073-.013-.354-.013-.354l-.111-.084c-.805-.633-2.081-1.364-3.008-1.74l-.127-.047-.117.063c-2.316 1.288-4.44 3.442-5.93 5.91-.374-.144-3.03-1.26-3.38-1.412.35-1.391.567-2.824.567-4.255 0-1.44-.173-2.86-.568-4.143l-.032-.134-.142-.055c-.876-.376-2.279-.76-3.316-.91l-.155-.025-.092.1c-1.916 1.858-3.42 4.504-4.216 7.28-.395-.065-3.141-.406-3.56-.45-.036-2.877-.81-5.823-2.18-8.114l-.068-.13-.145-.007c-.991-.125-2.492-.125-3.462 0l-.154.007-.068.13c-1.359 2.266-2.126 5.212-2.175 8.106-.4.052-3.19.393-3.593.459-.799-2.79-2.306-5.448-4.214-7.297l-.106-.107-.156.023c-1.027.153-2.448.534-3.326.891l-.132.058-.052.133a15.92 15.92 0 00-.553 4.196c0 1.404.224 2.848.553 4.224-.349.15-3.029 1.304-3.389 1.449-1.503-2.472-3.63-4.64-5.941-5.944l-.126-.073-.145.049c-.888.39-2.173 1.132-2.987 1.743l-.126.077V8.6c0 2.591.802 5.442 2.181 7.913-.3.25-2.316 1.826-2.619 2.07-2.076-2.007-4.702-3.55-7.293-4.221l-.132-.028-.1.095c-.795.595-1.864 1.643-2.475 2.437l-.089.114.033.138c.648 2.573 2.192 5.206 4.195 7.3-.219.308-1.975 2.594-2.219 2.91-2.512-1.404-5.437-2.233-8.117-2.196l-.135.007-.088.119c-.586.78-1.328 2.04-1.734 3l-.058.126.071.13c1.284 2.305 3.459 4.457 5.94 5.964-.135.353-1.152 2.834-1.308 3.193-2.852-.706-5.892-.715-8.43.025l-.135.035-.051.123c-.375.889-.761 2.29-.91 3.347l-.017.144.102.112c1.852 1.904 4.51 3.41 7.288 4.181-.058.393-.416 3.136-.466 3.514-2.888.054-5.86.817-8.128 2.179l-.125.071-.013.148a15.715 15.715 0 00-.095 1.74c0 .619.037 1.231.095 1.726l.013.142.125.065c2.268 1.358 5.215 2.135 8.12 2.178.058.397.444 3.215.494 3.602-2.786.817-5.423 2.341-7.275 4.243l-.1.119.013.128c.162 1.041.543 2.476.903 3.34l.056.13.132.043c2.57.734 5.61.702 8.433 0 .144.357 1.236 2.852 1.386 3.212-2.47 1.48-4.634 3.619-5.942 5.933l-.061.13.048.132c.379.907 1.136 2.193 1.739 2.995l.09.114.13.006c2.653.037 5.584-.748 8.129-2.153.237.299 1.957 2.538 2.183 2.844-1.998 2.044-3.55 4.665-4.21 7.276l-.036.134.086.114c.61.781 1.665 1.827 2.442 2.46l.115.098.137-.046c2.575-.64 5.19-2.174 7.294-4.187a515.72 515.72 0 002.872 2.202c-1.37 2.514-2.168 5.381-2.168 7.991v.293l.13.098c.774.589 2.038 1.309 2.982 1.733l.13.047.136-.066c2.32-1.295 4.463-3.466 5.966-5.968.348.143 2.792 1.134 3.15 1.277-.349 1.378-.55 2.798-.55 4.198 0 1.469.192 2.904.565 4.195l.033.136.143.053c.879.375 2.293.76 3.33.927l.155.022.1-.115c1.922-1.868 3.422-4.525 4.172-7.275.404.066 3.215.464 3.608.505.056 2.903.836 5.856 2.196 8.107l.06.124.156.018c.999.127 2.483.127 3.46 0l.143-.018.07-.124c1.351-2.25 2.126-5.208 2.2-8.123.391-.054 3.025-.423 3.418-.489.776 2.797 2.287 5.43 4.208 7.295l.105.095.128-.011c1.05-.166 2.472-.535 3.356-.894l.126-.063.044-.13c.373-1.3.542-2.727.542-4.191 0-1.418-.2-2.864-.542-4.255.361-.136 2.914-1.242 3.272-1.402 1.504 2.48 3.641 4.651 5.946 5.954l.115.057.136-.05c.917-.379 2.213-1.125 3.01-1.748l.114-.067s.01-.306.01-.39c0-2.556-.81-5.409-2.154-7.909.301-.238 2.41-1.878 2.71-2.12 2.107 2.001 4.733 3.54 7.307 4.206l.138.038.105-.098c.785-.617 1.855-1.674 2.467-2.439l.094-.125-.048-.126c-.64-2.57-2.172-5.199-4.18-7.298.234-.31 1.935-2.544 2.164-2.862 2.55 1.405 5.48 2.208 8.118 2.152h.145l.087-.107c.629-.804 1.357-2.063 1.736-3.015l.058-.12-.069-.128c-1.259-2.265-3.415-4.422-5.884-5.975.143-.355 1.152-2.818 1.301-3.172 2.8.72 5.84.745 8.398 0l.124-.042.057-.128c.375-.901.756-2.298.916-3.335l.016-.145-.108-.11c-1.853-1.921-4.495-3.41-7.25-4.2.06-.384.434-3.026.473-3.415 2.918-.05 5.885-.828 8.146-2.192l.115-.073.01-.153c.069-.48.094-1.11.094-1.73 0-.621-.025-1.232-.093-1.717"/><path d="M258.567 42.243c.398.134.556.576.678 1.01 2.078 6.985 2.078 12.96 0 20.001-.168.605-.412.938-.733 1.07-.463.141-.972-.191-1.397-.506l-13.603-9.232c-.523-.349-.83-.824-.83-1.332 0-.5.3-.975.83-1.339l13.603-9.219c.613-.442 1.093-.58 1.452-.453zm-4.986 30.794c-5.038 5.306-10.198 8.292-17.301 9.994-.603.152-1.019.104-1.277-.11-.372-.312-.323-.935-.287-1.472l1.179-16.394c.074-.637.326-1.119.774-1.386.436-.236.995-.216 1.546.048l14.793 7.163c.69.34 1.06.677 1.132 1.045.072.411-.23.774-.559 1.112zm-23.01-10.343c-5.299 0-9.606-4.306-9.606-9.6a9.585 9.585 0 014.32-8.02 1.935 1.935 0 012.684.546c.588.895.35 2.1-.546 2.69a5.704 5.704 0 00-2.576 4.784 5.736 5.736 0 005.724 5.725 5.735 5.735 0 005.728-5.725 5.703 5.703 0 00-2.58-4.79 1.94 1.94 0 012.14-3.237 9.612 9.612 0 014.32 8.027c0 5.294-4.311 9.6-9.608 9.6zm-4.216 20.466c-.327.265-.779.185-1.227.07-7.063-1.685-12.255-4.674-17.304-10-.368-.383-.543-.718-.543-1.02 0-.054 0-.087.01-.146.069-.467.64-.74 1.116-.97l14.79-7.178c.578-.27 1.135-.283 1.571-.026.427.253.693.733.743 1.357l1.197 16.418c.047.78-.068 1.257-.353 1.495zm-22.303-19.237c-.64.438-1.116.596-1.479.466-.402-.139-.537-.582-.664-1.018-2.092-6.977-2.092-12.961-.025-19.998.179-.603.432-.936.753-1.053.474-.17.97.177 1.415.483l13.588 9.244c.513.34.812.814.812 1.328 0 .493-.299.969-.792 1.328zm3.51-30.367h.01c5.059-5.314 10.237-8.31 17.303-10.005.436-.098.902-.182 1.213.096.3.234.404.715.35 1.502l-1.197 16.383c-.037.63-.298 1.126-.741 1.369-.43.259-.993.245-1.555-.033l-14.781-7.158c-.484-.24-1.047-.493-1.145-.98-.047-.336.117-.73.544-1.174zm27.458-10.042c.339-.276.787-.189 1.23-.096 7.063 1.71 12.25 4.694 17.313 10.013.358.379.552.734.552 1.048 0 .03-.01.078-.01.124-.108.486-.649.742-1.133.975l-14.79 7.162c-.583.276-1.127.303-1.554.038-.436-.25-.708-.736-.756-1.372L234.68 25.02c-.05-.782.057-1.265.34-1.507zm-4.424-5.652c-19.376 0-35.147 15.773-35.147 35.155 0 19.39 15.771 35.16 35.147 35.16 19.383 0 35.159-15.77 35.159-35.16 0-19.382-15.776-35.155-35.159-35.155"/></g></svg>