<svg xmlns="http://www.w3.org/2000/svg" viewBox="39.81 37.74 193.39 193.39"><path d="M207.568 194.263c-.11.008-.216-.007-.324-.006a4.388 4.388 0 01-4.421-4.068v-.001a4.395 4.395 0 011.053-3.216 4.392 4.392 0 013.36-1.541 4.422 4.422 0 014.283 3.378c.056.23.104.463.122.708a4.427 4.427 0 01-4.073 4.746zm6.559-9.236a8.479 8.479 0 00-1.408-1.564 8.418 8.418 0 00-6.126-2.008 8.362 8.362 0 00-5.75 2.911 8.364 8.364 0 00-2.01 6.126 8.366 8.366 0 002.912 5.752 8.429 8.429 0 002.435 1.452 8.332 8.332 0 003.69.557c.483-.037.95-.122 1.405-.237a8.432 8.432 0 006.373-8.116c.001-.227 0-.456-.016-.687a8.378 8.378 0 00-1.505-4.186zm-46.999-35.44a2.003 2.003 0 001.91-2.087v-.013c-.14-3.278 1.005-6.285 3.226-8.468 2.225-2.188 5.272-3.284 8.59-3.082 4.814.292 10.67 6.083 10.642 12.424-.05 11.033-12.007 24.1-23.095 31.568-.396.268-.79.53-1.186.788-14.188-7.945-25.187-20.812-25.064-30.398.1-7.79 5.048-12.746 9.654-13.455.611-.095 1.22-.141 1.823-.141 2.641 0 5.16.896 7.235 2.598 2.51 2.06 4.034 5.1 4.178 8.342v.012a2.002 2.002 0 002.087 1.912zm51.25 28.269c-.158-.147-.302-.301-.465-.44-3.322-2.853-7.557-4.23-11.924-3.91a16.281 16.281 0 00-11.194 5.667 16.268 16.268 0 00-3.848 8.79c-6.592-.242-13.358-2.167-19.672-5.15 12.121-8.358 24.165-22.096 24.221-34.435.039-8.76-7.71-16.027-14.4-16.433-4.47-.272-8.593 1.23-11.636 4.22a14.676 14.676 0 00-2.783 3.782 15.483 15.483 0 00-3.276-3.718 15.522 15.522 0 00-12.206-3.318c-7.324 1.126-12.932 8.589-13.044 17.355-.134 10.494 10.722 24.073 25.248 32.842-22.93 13.69-44.548 14.488-58.594 1.896-13.185-11.821-15.886-32.761-6.92-51.56l2.48 1.62a19.835 19.835 0 0010.85 3.252c4.23 0 8.423-1.377 11.89-4.113l33.751-28.658c5.38-4.838 6.561-12.841 2.635-17.838l-5.251-6.683.192-.145a1.999 1.999 0 10-2.408-3.192l-3.519 2.653a2 2 0 102.41 3.192l.13-.099 5.3 6.744c2.608 3.318 1.616 8.994-2.121 12.358l-33.654 28.572c-5.127 4.049-12.37 4.297-18.018.608l-8.775-5.73c-5.66-3.696-8.425-10.492-6.903-16.836l11.988-42.744c1.505-4.87 6.179-8.113 10.228-7.086l8.394 2.144-.044.194a2 2 0 103.899.894l.988-4.308a2 2 0 00-1.502-2.396 1.996 1.996 0 00-2.396 1.502l-.05.214-8.3-2.12c-6.136-1.567-12.889 2.818-15.054 9.832L83.003 108.14c-1.935 8.058 1.515 16.575 8.587 21.192l2.892 1.888c-10.014 20.522-6.975 43.645 7.653 56.762 7.434 6.665 16.709 9.97 27.068 9.97 11.713 0 24.812-4.226 38.197-12.602 7.427 3.85 15.579 6.362 23.593 6.618.52 4.02 2.46 7.663 5.559 10.323.532.456 1.092.86 1.668 1.241-16.404 14.666-38.028 23.604-61.71 23.604-51.114 0-92.697-41.584-92.697-92.697s41.583-92.696 92.696-92.696c51.114 0 92.696 41.583 92.696 92.696a92.108 92.108 0 01-10.828 43.416zm-10.205 24.356c-.912.07-1.81.032-2.69-.092a12.172 12.172 0 01-4.243-1.416 12.573 12.573 0 01-2.083-1.445 12.318 12.318 0 01-4.284-8.464 12.32 12.32 0 012.955-9.017 12.311 12.311 0 018.464-4.283c.321-.024.641-.036.959-.036a12.298 12.298 0 019.094 4.005 12.295 12.295 0 013.244 7.45c.519 6.814-4.602 12.78-11.416 13.298zm12.962-21.053a96.093 96.093 0 0012.07-46.719c0-53.319-43.377-96.696-96.696-96.696-53.319 0-96.696 43.377-96.696 96.696 0 53.319 43.377 96.697 96.696 96.697 25.291 0 48.334-9.77 65.582-25.721a16.321 16.321 0 006.384.786 16.293 16.293 0 0011.196-5.667 16.289 16.289 0 003.909-11.924 16.323 16.323 0 00-2.445-7.452" fill="currentColor"/></svg>