<svg xmlns="http://www.w3.org/2000/svg" version="1.0" viewBox="28.4 29.34 146.41 144.58"><path d="M87.5 30.4C72 34.1 62.2 39.6 51 50.9c-8.7 8.7-13.5 16.2-17 26.4-1.1 3.2-2.6 5.6-3.9 6.2-1.6.7-2 1.5-1.5 3 .3 1.1 1 8.3 1.4 16 1.2 19.7 6.2 33.4 16.6 45.2 2.9 3.5 5.2 7.4 6.6 11.5 1.1 3.5 2.4 6.6 2.8 7.1.3.4 2.5.1 4.8-.7 4-1.5 4.4-1.4 11.4 1.8 21.1 9.7 46.9 8.5 66.7-3.1 11.9-7 24.1-20.2 29.1-31.7 1.2-2.5 2.9-5 4-5.6 1.4-.8 1.7-1.6 1.2-3.1-.5-1.2-.2-5 .6-8.8.9-4.5 1.2-10 .9-17.1-.9-17.4-7-32.3-18.7-45.2-5.1-5.7-5.1-5.7-3.5-8.7 3.1-6.1 1.2-8.7-9.4-12.8l-4.5-1.7-2.4 3-2.4 3.1-8.7-3c-7.1-2.4-10.6-3-20.1-3.3-7.6-.2-13.5.1-17.5 1zm30.1 3.6c2.4.6 6.8 1.9 9.8 3.1l5.6 2-3.4 6.8c-3.2 6.3-4 7-11.4 11.3-8.3 4.9-21.9 15.3-25 19.3-1.8 2.3-2 2.3-10.3 1.3-9.2-1.1-26.8.1-39.3 2.7-3.8.8-7.1 1.3-7.3 1.1-.7-.7 3.1-9.1 7.1-15.9 10.7-18 28-29.1 51.6-33.1 3.5-.6 17.5.3 22.6 1.4zm28.5 2.5c4.6 2.4 4.9 2.7 3.8 4.8-.7 1.2-1.3 2.3-1.4 2.5-.3.3-10.4-4.5-11.3-5.3-.7-.6 1.9-4.5 2.9-4.5.5 0 3.2 1.1 6 2.5zm-4.6 7.9c3 1.4 5.5 3 5.5 3.5 0 .6-.2 1.1-.5 1.1-1.3 0-11.5-5.5-11.5-6.2 0-1.1.4-1.1 6.5 1.6zm-18 26.3c-5.9 12.6-10.9 23-11.1 23.2-3.2 3.6 7.8-21.8 18.8-43.2 1.1-2.2 2.2-3.6 2.5-3.3.3.3-4.3 10.8-10.2 23.3zm18.1-19.9l3.2 1.7-11.1 23.3-11.1 23.4-3-.6c-1.7-.4-3.4-1-3.8-1.4-.7-.7 21.2-48.2 22.2-48.1.3 0 1.9.8 3.6 1.7zm20.9 16.6c4.6 8.3 7.1 15.9 8.5 25.4 1 7.3.4 21.2-.9 21.2-.9 0-21.1-59.1-21.1-61.5.1-2.9 9 6.9 13.5 14.9zm-47.1 8.2L107 93.2v8.3c0 6.3.4 8.8 1.6 9.9 1.9 1.9 2.7 1.5 10.8-5.1 5.8-4.7 6.2-5.4 15.9-25.8 5.4-11.6 10.2-21.3 10.6-21.8.4-.4 4.7 10.6 9.4 24.4 4.8 13.9 8.6 25.3 8.5 25.4-.2.2-5 2.6-10.8 5.5-12.9 6.4-24.6 14-32.5 21.3l-6 5.4-10.3-29.9-10.4-30 3.4-3.5c4.4-4.6 13.1-11.3 20.4-15.7 3.2-2 6-3.6 6.1-3.6.1 0-3.6 7.9-8.3 17.6zm-25 6.5c.5.5 20.6 57.9 20.6 58.9 0 .3-7.8.5-17.3.6-13.9 0-19.2.5-27.7 2.3-5.8 1.3-11.2 2.4-12 2.5-1.1.1-4.2-7.9-11.6-29.4-5.6-16.2-9.9-29.8-9.5-30.2.6-.7 17.5-4.3 24.1-5.1 4.5-.6 32.8-.3 33.4.4zm24.9 18.7l3.7 1.8-2.9 2.2c-4.2 3.1-5.1 2.8-5.1-1.8 0-2.2.1-4 .3-4 .2 0 2 .8 4 1.8zm-67.6 42.8c-.7.7-7.1-10.3-9.4-15.9-2.6-6.5-5.3-18.8-5.2-24 0-2 2.7 4.6 7.4 18.2 4.1 11.8 7.3 21.6 7.2 21.7zM166 112.9c0 .5.2 1.6.5 2.3.4 1.1-2.2 2.5-9.7 5.3-5.7 2.1-13.6 5.3-17.5 7.1-4 1.8-7.3 3.2-7.3 3 0-1.4 30.6-18.6 33.1-18.6.5 0 .9.4.9.9zm3 10c0 1.1-1.2 2.2-3.2 2.8-1.8.6-11.8 4-22.3 7.6-10.4 3.7-18.1 5.9-17 5.1 6-4.6 39.7-19 41.8-17.7.4.2.7 1.2.7 2.2zm-6.2 12.3c-5 9.5-18.3 22.4-28.3 27.5-13.6 7-27.4 9.4-41.6 7.3-7.7-1.1-20.3-5-22.2-6.9-.5-.5 89.6-32.8 95.1-34 .2-.1-1.2 2.7-3 6.1zm-67.3 9.5c-8.2 1-19.8 3.8-29.2 7-5.7 1.9-10.6 3.3-10.8 3.1-.1-.1-.5-1.3-.9-2.4-.6-2 0-2.3 6.1-3.8 8.9-2.2 25.4-4.4 32.3-4.3 3 0 4.2.2 2.5.4zm3.5 4c-.8.4-10.3 3.7-21.2 7.4-19.9 6.9-20.8 7-20.8 2.9 0-1.2 18.3-7 28.5-9 8.6-1.8 16.7-2.5 13.5-1.3z"/></svg>