<svg xmlns="http://www.w3.org/2000/svg" viewBox="39.81 33.94 193.39 199.21"><path d="M161.895 141.557c2.909-1.516 3.816-5.692 3.87-8.558.527-1.288 1.346-2.61 1.734-2.814 1.097-.322 1.974-1.094 2.534-2.232a6.557 6.557 0 00.606-2.101c1.213-.419 2.573-1.155 3.085-2.413.43-1.06 1.132-3.914 1.413-5.092 4.08.46 6.707-.662 7.214-3.12.44-2.135-1.178-11.274-1.916-15.214-.032-.461-.136-3.433 2.338-5.908l.168-.189c.283-.367 6.914-9.077 5.615-19.825-.321-2.66-1.675-10.464-6.845-18.523 28.31 15.883 47.494 46.177 47.494 80.885 0 22.292-7.913 42.77-21.074 58.78-2.798-16.75-11.576-35.745-46.236-53.676zm-25.386 87.592c-24 0-45.899-9.17-62.378-24.188a1.956 1.956 0 00-.233-.452c-13.577-19.089-12.825-28.007-6.689-37.788 1.592-2.534 4.81-4.666 8.533-7.136 4.945-3.277 10.957-7.266 15.193-13.81 2.569 4.878 6.022 8.862 8.872 11.622 3.79 3.671 8.07 6.675 10.76 7.619 2.25 3.817 11.67 17.457 27.316 9.47 4.512-2.304 7.925-4.837 10.554-7.451 1.324 3.14 4.418 8.152 7.283 12.255-1.883-.595-4.239-1.205-7.568-1.833-1.073-.214-2.132.508-2.336 1.594a1.999 1.999 0 001.595 2.336c5.929 1.121 8.561 2.172 11.108 3.189.76.302 1.513.606 2.34.904a1.996 1.996 0 002.344-.765 2.002 2.002 0 00-.184-2.463c-2.78-3.045-9.578-13.117-11.114-17.286a2.001 2.001 0 00-.774-.97c3.46-4.475 4.978-9.03 5.876-12.994a1.999 1.999 0 00-1.51-2.391 1.994 1.994 0 00-2.392 1.51c-.926 4.094-3.098 13.681-17.042 20.802-2.342 1.2-14.439 6.412-22.396-8.552a1.998 1.998 0 00-1.46-1.038c-2.835-.437-16.438-10.277-20.043-23.074-.849-3.016-1.07-5.963-.682-8.836.817-6.071 4.38-11.808 10.673-17.136.331-.28.659-.542.988-.807 7.92-6.388 15.52-8.703 22.625-6.863 12.98 3.367 22.257 19.6 27.579 31.964a132.879 132.879 0 011.977 4.854c.11.288.223.577.328.857.18.476.535.865.99 1.09 22.691 11.135 44.2 25.612 48.02 55.82-16.95 18.397-41.225 29.947-68.153 29.947zm-92.696-92.696c0-40.45 26.053-74.91 62.252-87.537a42.057 42.057 0 00-3.75 4.976c-5.18 8.087-6.75 18.132-4.302 27.56 2.24 8.625 3.618 14.487 3.88 16.501.29 2.227-.311 6.286-2.074 11.079-.083.07-.165.132-.248.203-13.173 11.149-13.392 22.526-11.257 30.109.182.648.414 1.268.637 1.895h-.002c-3.73 7.27-9.939 11.384-15.417 15.012-4.11 2.724-7.661 5.077-9.71 8.345-5.35 8.524-6.32 16.282-2.535 25.928-10.98-15.23-17.474-33.901-17.474-54.07zM175.2 118.096l-.005.008.001-.01zm-60.718-71.675a39.565 39.565 0 0110.63-5.97c6.21-2.315 13.517-3.246 21.784-1.866 5.61.935 10.37 2.486 14.443 4.418 4.921 2.336 8.814 5.238 11.882 8.35 9.046 9.172 10.986 20.094 11.363 23.218 1.037 8.577-4.119 15.954-4.745 16.813-3.926 4.021-3.398 8.93-3.372 9.139l.018.133c1.023 5.445 2.024 11.988 1.963 13.577-.456.186-1.69.306-3.243.091-2.005-.284-3.382 1.139-3.83 2.57l-.038.14c-.35 1.494-.937 3.809-1.246 4.7-.334.21-1.166.491-1.846.617l-2.394.426.833 2.142c.036.434-.14 1.268-.31 1.428-2.525.738-4.069 4.457-4.482 5.578l-.125.344.001.36c.005 1.086-.388 5.47-2.303 5.504-.022.002-.045.002-.066.002-.308 0-.695-.047-1.124-.119-5.363-13.31-15.815-33.203-31.503-37.27-6.973-1.81-14.22-.34-21.61 4.355.714-3.06.95-5.724.697-7.664-.362-2.786-2.36-10.777-3.974-16.99-2.169-8.354-.784-17.246 3.797-24.396 2.177-3.4 5.134-6.75 8.8-9.63zm61.14 1.63c-6.091-6-15.005-11.231-28.067-13.411-14.494-2.417-26.315 1.661-34.832 8.085-41.854 10.627-72.91 48.615-72.91 93.728 0 53.32 43.377 96.696 96.696 96.696 53.319 0 96.696-43.377 96.696-96.696 0-39.402-23.701-73.352-57.584-88.402zm2.727 118.014a1.998 1.998 0 00-1.05 2.625c2.264 5.282 9.521 27.846.789 33.506-12.765 8.279-27.505 3.473-47.791-15.56a1.995 1.995 0 00-.394-.288c-1.674-.932-4.084-.835-6.87-.719-1.869.075-3.802.155-5.25-.124-2.946-.57-6.452-4.166-7.02-6.54a2 2 0 00-3.89.933c.879 3.673 5.506 8.637 10.153 9.534 1.901.367 4.075.279 6.17.193 1.603-.065 3.752-.154 4.595.144 14.55 13.6 26.902 20.287 37.814 20.286 5.184 0 10.044-1.51 14.66-4.502 13.084-8.482.838-38.141.71-38.437a2.003 2.003 0 00-2.626-1.05" fill="currentColor"/></svg>