<svg xmlns="http://www.w3.org/2000/svg" viewBox="39.92 25.93 193.39 206.21"><path d="M136.616 228.143c-51.113 0-92.697-41.584-92.697-92.698 0-48.558 37.538-88.486 85.115-92.36a264.535 264.535 0 01-3.592 8.011c-3.463 7.447-7.412 14.836-11.23 21.983l-.731 1.368c-2.696 5.046-5.75 10.765-6.85 17.033-2.028 11.552 3.396 24.125 13.19 30.576 4.91 3.235 10.8 4.853 16.69 4.853 5.857 0 11.716-1.6 16.608-4.802 9.813-6.422 15.276-18.979 13.284-30.536-1.09-6.316-4.152-12.06-6.856-17.13l-1.224-2.29c-3.496-6.55-7.111-13.322-10.402-20.322a182.08 182.08 0 01-3.83-8.753c47.628 3.823 85.221 43.775 85.221 92.37 0 51.113-41.583 92.697-92.696 92.697zm-3.153-185.314c.542-1.32 1.077-2.66 1.6-4.041a122.618 122.618 0 001.53-4.25 198.55 198.55 0 001.542 4.249 189.33 189.33 0 001.56 4.041 188.682 188.682 0 004.608 10.705c3.333 7.09 7.136 14.215 10.492 20.5l.001.002 1.223 2.29c2.56 4.802 5.461 10.243 6.441 15.926 1.73 10.034-3.012 20.934-11.532 26.509-8.517 5.575-20.406 5.559-28.907-.044-8.502-5.6-13.211-16.516-11.45-26.543.989-5.64 3.883-11.06 6.438-15.841l.73-1.37c3.846-7.193 7.82-14.633 11.33-22.18 1.43-3.073 2.935-6.414 4.394-9.953zm9.002-3.888a204.227 204.227 0 01-4.048-11.609 1.966 1.966 0 00-1.946-1.4 2 2 0 00-1.891 1.477c-1.093 4.044-2.433 7.892-3.861 11.538-50.581 3.06-90.8 45.161-90.8 96.498 0 53.32 43.378 96.698 96.697 96.698s96.696-43.378 96.696-96.698c0-51.353-40.243-93.466-90.847-96.504zM110.626 62.62a2 2 0 10-1.255-3.799c-26.687 8.813-46.652 31.43-52.103 59.023a2 2 0 103.925.776c5.17-26.18 24.112-47.639 49.433-56zm96.655 86.156a3.386 3.386 0 01-1.484 2.438l-1.317.704c-1.73-.358-3.567-.118-5.164.81l-35.868 19.638-7.535-2.628 45.736-24.843a3.397 3.397 0 014.142.562l.544.557a3.39 3.39 0 01.946 2.762zm-.366 11.314a3.387 3.387 0 01-1.551 2.482l-24.521 15.861-12.307-4.292 32.747-17.93a3.396 3.396 0 014.141.563l.545.558a3.382 3.382 0 01.946 2.758zm-20.768 28.559a7.476 7.476 0 01-8.467 6.177l-8.98-1.273-5.99-.85-30.361-4.308c-1.089-.14-2.106.606-2.262 1.7a2 2 0 001.7 2.26l25.864 3.67-15.999 10.51c-5.03 3.306-11.603 3.426-16.783.29-.3-.17-29.986-17.26-43.804-27.061-10.531-7.471-15.636-18.583-13.009-28.31 1.992-7.373 8.017-12.206 16.114-12.93 20.176-1.822 40.87 15.202 41.74 15.928l3.852 3.208 3.97 3.714a53.39 53.39 0 0019.015 11.496l30.333 10.578a4.66 4.66 0 013.067 5.2zm-18.511-45.875a3.395 3.395 0 014.14.562l.545.559c.356.363.611.791.772 1.254l-31.929 17.176a50.507 50.507 0 01-4.132-3.368zm16.75.842a3.398 3.398 0 014.142.56l.544.558c.53.543.832 1.22.923 1.94l-39.039 21.205a49.04 49.04 0 01-6.012-3.045zm24.266-.952c-2.37-2.431-6.077-2.934-8.961-1.256l-6.067 3.294a7.382 7.382 0 00-1.69-2.761l-.545-.558c-2.374-2.43-6.084-2.931-8.957-1.258l-5.793 3.117a7.351 7.351 0 00-1.456-2.142l-.544-.558c-2.37-2.43-6.079-2.933-8.944-1.265l-31.772 16.799-1.455-1.362c-.03-.028-.069-.037-.1-.061l.013-.016-3.911-3.258c-.92-.767-22.824-18.775-44.656-16.84-9.837.88-17.17 6.813-19.619 15.871-3.07 11.363 2.642 24.164 14.555 32.616 13.974 9.912 43.825 27.094 44.086 27.244a19.68 19.68 0 0010.19 2.827c3.782 0 7.56-1.076 10.822-3.218l19.795-13.003 13.476 1.91c.557.08 1.112.117 1.658.117 5.542 0 10.35-3.949 11.312-9.58.648-3.783-1.252-7.437-4.576-9.147l22.016-14.24a7.372 7.372 0 003.36-5.392 7.37 7.37 0 00-2.058-6.007l-.339-.348a7.353 7.353 0 002.763-4.961 7.365 7.365 0 00-2.059-6.007zm5.679-24.82c-5.451-27.592-25.415-50.21-52.103-59.023a2.001 2.001 0 00-1.256 3.799c25.323 8.361 44.264 29.82 49.435 56a2 2 0 003.924-.776" fill="currentColor"/></svg>